<?xml version="1.0" standalone="no"?>
<!DOCTYPE svg PUBLIC "-//W3C//DTD SVG 20010904//EN"
 "http://www.w3.org/TR/2001/REC-SVG-20010904/DTD/svg10.dtd">
<svg version="1.0" xmlns="http://www.w3.org/2000/svg"
 width="48.000000pt" height="48.000000pt" viewBox="0 0 48.000000 48.000000"
 preserveAspectRatio="xMidYMid meet">

<g transform="translate(0.000000,48.000000) scale(0.100000,-0.100000)"
fill="#000000" stroke="none">
<path d="M0 240 l0 -240 120 0 120 0 0 240 0 240 -120 0 -120 0 0 -240z m150
35 c0 -8 9 -15 20 -15 11 0 20 7 20 15 0 8 5 15 10 15 6 0 10 -20 10 -45 0
-25 -4 -45 -10 -45 -5 0 -10 9 -10 20 0 13 -7 20 -20 20 -13 0 -20 -7 -20 -20
0 -11 -4 -20 -10 -20 -5 0 -10 20 -10 45 0 25 5 45 10 45 6 0 10 -7 10 -15z"/>
<path d="M260 283 c0 -20 22 -83 29 -83 4 0 12 12 18 28 10 24 11 25 12 5 1
-31 20 -38 30 -11 19 52 22 68 12 68 -6 0 -14 -12 -18 -27 l-7 -28 -6 24 c-7
31 -30 40 -30 12 0 -12 -4 -21 -10 -21 -5 0 -10 9 -10 20 0 11 -4 20 -10 20
-5 0 -10 -3 -10 -7z"/>
</g>
</svg>
